<?xml version="1.0" encoding="UTF-8"?>
<svg width="107px" height="107px" viewBox="0 0 107 107" version="1.1" xmlns="http://www.w3.org/2000/svg" xmlns:xlink="http://www.w3.org/1999/xlink">
    <!-- Generator: Sketch 59.1 (86144) - https://sketch.com -->
    <title>NA/express-infrastructure-as-code-to-automate-your-deployments</title>
    <desc>Created with Sketch.</desc>
    <defs>
        <rect id="path-1" x="0" y="0" width="100" height="100" rx="50"></rect>
        <filter x="-8.3%" y="-8.5%" width="116.7%" height="118.5%" filterUnits="objectBoundingBox" id="filter-3">
            <feOffset dx="0" dy="2" in="SourceAlpha" result="shadowOffsetOuter1"></feOffset>
            <feColorMatrix values="0 0 0 0 0   0 0 0 0 0   0 0 0 0 0  0 0 0 0.0964956975 0" type="matrix" in="shadowOffsetOuter1" result="shadowMatrixOuter1"></feColorMatrix>
            <feMerge>
                <feMergeNode in="shadowMatrixOuter1"></feMergeNode>
                <feMergeNode in="SourceGraphic"></feMergeNode>
            </feMerge>
        </filter>
        <linearGradient x1="23.2840402%" y1="0%" x2="100%" y2="100%" id="linearGradient-4">
            <stop stop-color="#ECD326" offset="0%"></stop>
            <stop stop-color="#D39F6E" offset="100%"></stop>
        </linearGradient>
        <linearGradient x1="78.4210223%" y1="-7.24023438%" x2="15.5786468%" y2="110.793945%" id="linearGradient-5">
            <stop stop-color="#FFFFFF" offset="0%"></stop>
            <stop stop-color="#000000" stop-opacity="0.5" offset="100%"></stop>
        </linearGradient>
        <rect id="path-6" x="-3" y="-3" width="106" height="106" rx="53"></rect>
        <filter x="-0.5%" y="-0.5%" width="101.9%" height="101.9%" filterUnits="objectBoundingBox" id="filter-7">
            <feOffset dx="1" dy="1" in="SourceAlpha" result="shadowOffsetOuter1"></feOffset>
            <feMorphology radius="4" operator="erode" in="SourceAlpha" result="shadowInner"></feMorphology>
            <feOffset dx="1" dy="1" in="shadowInner" result="shadowInner"></feOffset>
            <feComposite in="shadowOffsetOuter1" in2="shadowInner" operator="out" result="shadowOffsetOuter1"></feComposite>
            <feColorMatrix values="0 0 0 0 0   0 0 0 0 0   0 0 0 0 0  0 0 0 0.15 0" type="matrix" in="shadowOffsetOuter1"></feColorMatrix>
        </filter>
    </defs>
    <g id="Badges" stroke="none" stroke-width="1" fill="none" fill-rule="evenodd">
        <g id="N/A-61" transform="translate(-47.000000, -257.000000)">
            <g id="NA/express-infrastructure-as-code-to-automate-your-deployments" transform="translate(50.000000, 260.000000)">
                <g id="Mask" transform="translate(2.000000, 2.000000)">
                    <g id="Circle-" transform="translate(-2.000000, 0.000000)">
                        <mask id="mask-2" fill="white">
                            <use xlink:href="#path-1"></use>
                        </mask>
                        <g id="BG"></g>
                        <g id="Color/Blue" mask="url(#mask-2)" fill="#55A2FF" fill-rule="evenodd">
                            <rect id="Rectangle" x="0" y="0" width="100" height="100"></rect>
                        </g>
                    </g>
                    <path d="M60.7294069,16.8647035 C57.4816244,16.8647035 54.8647035,14.2477826 54.8647035,11 C54.8647035,14.2477826 52.2477826,16.8647035 49,16.8647035 C52.2477826,16.8647035 54.8647035,19.4816244 54.8647035,22.7294069 C54.8647035,19.4816244 57.4816244,16.8647035 60.7294069,16.8647035 Z M8.31468135,38.7605646 C8.31468135,41.7853128 10.7518909,44.2225224 13.7766391,44.2225224 C10.7518909,44.2225224 8.31468135,46.659732 8.31468135,49.6844801 C8.31468135,46.659732 5.87747177,44.2225224 2.8527236,44.2225224 C5.87747177,44.2225224 8.31468135,41.7853128 8.31468135,38.7605646 Z M81.4081558,22.2009821 C81.4081558,24.7318217 83.4473954,26.7710614 85.978235,26.7710614 C83.4830772,26.7710614 81.4438586,28.810301 81.4081558,31.3411406 C81.4081558,28.810301 79.3689161,26.7710614 76.8380765,26.7710614 C79.3689161,26.7710614 81.4081558,24.7318217 81.4081558,22.2009821 Z" id="Sparkle" fill="#FFFFFF" opacity="0.949999988"></path>
                    <g id="Group" transform="translate(-13.000000, 35.000000)">
                        <path d="M3.63797881e-12,59.5473045 L29.9052866,15.3578659 C30.2148251,14.9004773 30.8365425,14.7806212 31.293931,15.0901598 C31.3670587,15.1396491 31.4333096,15.198606 31.4909555,15.2654925 L69.6550357,59.5473045 L69.6550357,59.5473045 L3.63797881e-12,59.5473045 Z" id="Path-272" fill="#EAE6E6"></path>
                        <path d="M20.4792544,29.2736523 C21.9089419,30.5944738 23.5515201,31.2548845 25.4069888,31.2548845 C28.1901919,31.2548845 29.648787,29.2736523 31.9724185,29.2736523 C33.5215062,29.2736523 35.8916234,30.5704557 39.0827701,33.1640625 L42.042731,26.2734375 L31.488356,15.3590983 C31.1044335,14.9620819 30.4713575,14.9514672 30.0743412,15.3353896 C30.0262692,15.3818762 29.9829813,15.4330675 29.9451278,15.4881949 L20.4792544,29.2736523 L20.4792544,29.2736523 Z" id="Path-274" fill="#FFFFFF"></path>
                        <path d="M23.52642,59.5473045 L52.9870343,3.17674891 C53.4986515,2.19780987 54.706986,1.81897067 55.6859251,2.33058786 C56.0147074,2.50241743 56.2892192,2.76230559 56.4787722,3.08119879 L90.042731,59.5473045 L90.042731,59.5473045 L23.52642,59.5473045 Z" id="Path-271" fill="#D8D8D8"></path>
                        <path d="M44.7727115,18.3979492 C43.6975069,22.2189362 44.3939564,24.1294297 46.86206,24.1294297 C50.5642154,24.1294297 52.4081784,23.3320097 54.64728,23.7331737 C56.8863816,24.1343378 57.4375064,25.2817383 59.4580142,25.2817383 C60.8050194,25.2817383 62.8269921,22.9871419 65.5239322,18.3979492 L55.5501784,1.52726037 C55.2691166,1.05184192 54.6558682,0.894284745 54.1804498,1.17534656 C54.0232998,1.26825176 53.8945805,1.40240334 53.8082468,1.56325721 L44.7727115,18.3979492 L44.7727115,18.3979492 Z" id="Path-273" fill="#FFFFFF"></path>
                    </g>
                    <g id="Group" transform="translate(65.500000, 69.000000) scale(-1, 1) translate(-65.500000, -69.000000) translate(20.000000, 39.000000)">
                        <path d="M3.63797881e-12,59.5473045 L29.9052866,15.3578659 C30.2148251,14.9004773 30.8365425,14.7806212 31.293931,15.0901598 C31.3670587,15.1396491 31.4333096,15.198606 31.4909555,15.2654925 L69.6550357,59.5473045 L69.6550357,59.5473045 L3.63797881e-12,59.5473045 Z" id="Path-272" fill="#EAE6E6"></path>
                        <path d="M20.4792544,29.2736523 C21.9089419,30.5944738 23.5515201,31.2548845 25.4069888,31.2548845 C28.1901919,31.2548845 29.648787,29.2736523 31.9724185,29.2736523 C33.5215062,29.2736523 35.8916234,30.5704557 39.0827701,33.1640625 L42.042731,26.2734375 L31.488356,15.3590983 C31.1044335,14.9620819 30.4713575,14.9514672 30.0743412,15.3353896 C30.0262692,15.3818762 29.9829813,15.4330675 29.9451278,15.4881949 L20.4792544,29.2736523 L20.4792544,29.2736523 Z" id="Path-274" fill="#FFFFFF"></path>
                        <path d="M23.52642,59.5473045 L52.9870343,3.17674891 C53.4986515,2.19780987 54.706986,1.81897067 55.6859251,2.33058786 C56.0147074,2.50241743 56.2892192,2.76230559 56.4787722,3.08119879 L90.042731,59.5473045 L90.042731,59.5473045 L23.52642,59.5473045 Z" id="Path-271" fill="#D1CBCB"></path>
                        <path d="M44.7727115,18.3979492 C43.6975069,22.2189362 44.3939564,24.1294297 46.86206,24.1294297 C50.5642154,24.1294297 52.4081784,23.3320097 54.64728,23.7331737 C56.8863816,24.1343378 57.4375064,25.2817383 59.4580142,25.2817383 C60.8050194,25.2817383 63.0089561,22.9871419 66.0698242,18.3979492 L55.5598152,1.46979307 C55.2685032,1.0005855 54.6519802,0.856372687 54.1827726,1.14768473 C54.033932,1.24009388 53.9119805,1.36998419 53.8291293,1.52434958 L44.7727115,18.3979492 L44.7727115,18.3979492 Z" id="Path-273" fill="#FFFFFF"></path>
                    </g>
                    <path d="M-1,78.5117187 C21.6145833,78.5117187 37.78125,78.5117187 47.5,78.5117187 C57.21875,78.5117187 73.3854167,78.5117187 96,78.5117187 L86.0664063,117 L18.375,117 L-1,78.5117187 Z" id="Path-270" fill="#96877F"></path>
                    <g id="Gear" filter="url(#filter-3)" transform="translate(5.000000, 6.000000)">
                        <path d="M31.0161231,23.6307692 C31.0161231,27.7026462 27.7026462,31.0153846 23.6315077,31.0153846 C19.5596308,31.0153846 16.2468923,27.7026462 16.2468923,23.6307692 C16.2468923,19.5588923 19.5596308,16.2461538 23.6315077,16.2461538 C27.7026462,16.2461538 31.0161231,19.5588923 31.0161231,23.6307692 Z M44.6636308,19.6534154 L41.2297846,18.8898462 C40.9484308,18.8278154 40.5105231,18.4290462 40.4226462,18.1543385 C40.4115692,18.1166769 40.3975385,18.0797538 40.3820308,18.0435692 L39.4345846,15.7410462 C39.4183385,15.7011692 39.3998769,15.6612923 39.3799385,15.6228923 C39.2470154,15.3681231 39.2728615,14.7810462 39.4272,14.5395692 L41.3161846,11.5709538 C42.1174154,10.3118769 41.9180308,8.49895385 40.8635077,7.44369231 L39.8185846,6.39876923 C38.7884308,5.36787692 36.9238154,5.16184615 35.6913231,5.94609231 L32.7219692,7.83433846 C32.6230154,7.89858462 32.3889231,7.96726154 32.1112615,7.96726154 C31.8838154,7.96726154 31.7147077,7.92147692 31.6393846,7.88233846 C31.6017231,7.86166154 31.5611077,7.84393846 31.5204923,7.82769231 L29.2187077,6.87950769 C29.1825231,6.86473846 29.1456,6.85070769 29.1079385,6.83963077 C28.8339692,6.75175385 28.4344615,6.31384615 28.3724308,6.03175385 L27.6096,2.59864615 C27.2854154,1.14166154 25.8624,0 24.3699692,0 L22.8930462,0 C21.3998769,0 19.9776,1.14166154 19.6541538,2.59790769 L18.8905846,6.03323077 C18.8278154,6.31384615 18.4290462,6.75175385 18.1550769,6.83963077 C18.1174154,6.85070769 18.0804923,6.86473846 18.0435692,6.87950769 L15.7417846,7.82769231 C15.7011692,7.84393846 15.6612923,7.86166154 15.6228923,7.88233846 C15.5483077,7.92147692 15.3792,7.96726154 15.1510154,7.96726154 C14.8733538,7.96726154 14.6392615,7.89784615 14.5395692,7.83433846 L11.5716923,5.94683077 C10.3392,5.16258462 8.47384615,5.36935385 7.44443077,6.39950769 L6.39950769,7.44369231 C5.34424615,8.49969231 5.1456,10.3126154 5.94683077,11.5716923 L7.83581538,14.5395692 C7.98941538,14.7817846 8.01526154,15.3673846 7.88307692,15.6221538 C7.86313846,15.6612923 7.84393846,15.7011692 7.82769231,15.7410462 L6.88024615,18.0435692 C6.86547692,18.0797538 6.85144615,18.1166769 6.83963077,18.1543385 C6.75175385,18.4290462 6.31458462,18.8278154 6.03249231,18.8905846 L2.59938462,19.6526769 C1.1424,19.9768615 0.000738461539,21.3991385 0.000738461539,22.8923077 L0.000738461539,24.3692308 C0.000738461539,25.8616615 1.1424,27.2846769 2.59864615,27.6081231 L6.03323077,28.3709538 C6.31458462,28.4337231 6.75175385,28.8324923 6.83963077,29.1072 C6.85144615,29.1448615 6.86547692,29.1817846 6.88024615,29.2179692 L7.82769231,31.5204923 C7.84393846,31.5603692 7.8624,31.5995077 7.88307692,31.6386462 C8.01526154,31.8926769 7.98941538,32.4797538 7.83507692,32.7219692 L5.94683077,35.6898462 C5.14486154,36.9489231 5.34424615,38.7625846 6.39950769,39.8178462 L7.44443077,40.8627692 C8.47310769,41.8907077 10.3362462,42.1004308 11.5724308,41.3154462 L14.5388308,39.4272 C14.6392615,39.3629538 14.8733538,39.2942769 15.1510154,39.2942769 C15.3792,39.2942769 15.5483077,39.3393231 15.6228923,39.3792 C15.6620308,39.3984 15.7011692,39.4176 15.7417846,39.4338462 L18.0435692,40.3820308 C18.0804923,40.3968 18.1174154,40.4100923 18.1550769,40.4219077 C18.4290462,40.5097846 18.8278154,40.9476923 18.8905846,41.2290462 L19.6541538,44.6628923 C19.9776,46.1198769 21.3998769,47.2615385 22.8930462,47.2615385 L24.3699692,47.2615385 C25.8624,47.2615385 27.2846769,46.1198769 27.6088615,44.6628923 L28.3724308,41.2290462 C28.4344615,40.9476923 28.8339692,40.5097846 29.1079385,40.4219077 C29.1456,40.4100923 29.1825231,40.3968 29.2187077,40.3820308 L31.5204923,39.4338462 C31.5611077,39.4176 31.6009846,39.3984 31.6393846,39.3792 C31.7147077,39.3393231 31.8838154,39.2942769 32.1105231,39.2942769 C32.3881846,39.2942769 32.6230154,39.3629538 32.7219692,39.4272 L35.6905846,41.3147077 C36.9223385,42.1004308 38.7884308,41.8921846 39.8185846,40.8627692 L40.8627692,39.8185846 C41.9180308,38.7633231 42.1174154,36.9496615 41.3161846,35.6898462 L39.4272,32.7219692 C39.2728615,32.4797538 39.2470154,31.8934154 39.3799385,31.6393846 C39.3998769,31.6002462 39.4183385,31.5611077 39.4345846,31.5212308 L40.3820308,29.2179692 C40.3975385,29.1817846 40.4115692,29.1448615 40.4226462,29.1072 C40.5105231,28.8324923 40.9484308,28.4337231 41.2305231,28.3709538 L44.6628923,27.6081231 C46.1206154,27.2846769 47.2622769,25.8616615 47.2622769,24.3692308 L47.2622769,22.8923077 C47.2622769,21.3991385 46.1206154,19.9768615 44.6636308,19.6534154 L44.6636308,19.6534154 Z" id="Fill-376" fill="#ADBDC4"></path>
                        <path d="M11.5724308,41.3154462 L14.5388308,39.4272 C14.6392615,39.3629538 14.8733538,39.2942769 15.1510154,39.2942769 C15.3792,39.2942769 15.5483077,39.3393231 15.6228923,39.3792 C15.6620308,39.3984 15.7011692,39.4176 15.7417846,39.4338462 L18.0435692,40.3820308 C18.0804923,40.3968 18.1174154,40.4100923 18.1550769,40.4219077 C18.4290462,40.5097846 18.8278154,40.9476923 18.8905846,41.2290462 L19.6541538,44.6628923 C19.9776,46.1198769 21.3998769,47.2615385 22.8930462,47.2615385 L24.3699692,47.2615385 C25.8624,47.2615385 27.2846769,46.1198769 27.6088615,44.6628923 L28.3724308,41.2290462 C28.4344615,40.9476923 28.8339692,40.5097846 29.1079385,40.4219077 C29.1456,40.4100923 29.1825231,40.3968 29.2187077,40.3820308 L31.5204923,39.4338462 C31.5611077,39.4176 31.6009846,39.3984 31.6393846,39.3792 C31.7147077,39.3393231 31.8838154,39.2942769 32.1105231,39.2942769 C32.3881846,39.2942769 32.6230154,39.3629538 32.7219692,39.4272 L35.6905846,41.3147077 C36.9223385,42.1004308 38.7884308,41.8921846 39.8185846,40.8627692 L40.8627692,39.8185846 C41.9180308,38.7633231 42.1174154,36.9496615 41.3161846,35.6898462 L39.4272,32.7219692 C39.2728615,32.4797538 39.2470154,31.8934154 39.3799385,31.6393846 C39.3998769,31.6002462 39.4183385,31.5611077 39.4345846,31.5212308 L40.3820308,29.2179692 C40.3975385,29.1817846 40.4115692,29.1448615 40.4226462,29.1072 C40.5105231,28.8324923 40.9484308,28.4337231 41.2305231,28.3709538 L44.6628923,27.6081231 C46.1206154,27.2846769 47.2622769,25.8616615 47.2622769,24.3692308 L47.2622769,22.8923077 C47.2622769,21.3991385 46.1206154,19.9768615 44.6636308,19.6534154 L41.2297846,18.8898462 C40.9484308,18.8278154 40.5105231,18.4290462 40.4226462,18.1543385 C40.4115692,18.1166769 40.3975385,18.0797538 40.3820308,18.0435692 L39.4345846,15.7410462 C39.4183385,15.7011692 39.3998769,15.6612923 39.3799385,15.6228923 C39.2470154,15.3681231 39.2728615,14.7810462 39.4272,14.5395692 L41.3161846,11.5709538 C42.1174154,10.3118769 41.9180308,8.49895385 40.8635077,7.44369231 L40.3406769,6.92086154 L28.8502154,18.4113231 C30.1875692,19.7486769 31.0161231,21.5948308 31.0161231,23.6307692 C31.0161231,27.7026462 27.7026462,31.0153846 23.6315077,31.0153846 C21.5955692,31.0153846 19.7494154,30.1868308 18.4120615,28.8502154 L6.92233846,40.3399385 L7.44443077,40.8627692 C8.47310769,41.8907077 10.3362462,42.1004308 11.5724308,41.3154462" id="Fill-377" fill="#8BA6B1"></path>
                        <path d="M23.6315077,31.0153846 C19.5529846,31.0153846 16.2468923,27.7092923 16.2468923,23.6307692 C16.2468923,19.5522462 19.5529846,16.2461538 23.6315077,16.2461538 C27.7100308,16.2461538 31.0161231,19.5522462 31.0161231,23.6307692 C31.0161231,27.7092923 27.7100308,31.0153846 23.6315077,31.0153846 Z M23.6315077,13.2923077 C17.9217231,13.2923077 13.2930462,17.9209846 13.2930462,23.6307692 C13.2930462,29.3405538 17.9217231,33.9692308 23.6315077,33.9692308 C29.3412923,33.9692308 33.9699692,29.3405538 33.9699692,23.6307692 C33.9699692,17.9209846 29.3412923,13.2923077 23.6315077,13.2923077 L23.6315077,13.2923077 Z" id="Fill-378" fill="#8BA6B1"></path>
                        <path d="M31.0161231,23.6307692 C31.0161231,27.7092923 27.7100308,31.0153846 23.6315077,31.0153846 C21.5918769,31.0153846 19.7457231,30.1890462 18.4098462,28.8524308 L16.3207385,30.9408 C18.192,32.8120615 20.7766154,33.9692308 23.6315077,33.9692308 C29.3412923,33.9692308 33.9699692,29.3405538 33.9699692,23.6307692 C33.9699692,20.7758769 32.8128,18.1912615 30.9422769,16.32 L28.8531692,18.4091077 C30.1897846,19.7449846 31.0161231,21.5911385 31.0161231,23.6307692" id="Fill-379" fill="#ADBDC4"></path>
                    </g>
                    <circle id="Oval" fill="url(#linearGradient-4)" cx="29.5" cy="29.5" r="14.5"></circle>
                </g>
                <g id="Azure-Border">
                    <path d="M50,0 C74.5263677,-4.50542066e-15 94.9281966,17.6592499 99.1842495,40.9565123 L94.2027317,73.3905473 C85.8096395,89.2186645 69.1638777,100 50,100 C30.9551233,100 14.3971863,89.3521454 5.95457608,73.6848234 L0.0261464987,48.3675131 C0.887696267,21.508872 22.932015,4.97230817e-15 50,0 Z" id="Combined-Shape" fill="url(#linearGradient-5)" fill-rule="evenodd" opacity="0.400000006" style="mix-blend-mode: overlay;"></path>
                    <g>
                        <use fill="black" fill-opacity="1" filter="url(#filter-7)" xlink:href="#path-6"></use>
                        <rect stroke="#F2F1F0" stroke-width="4" stroke-linejoin="square" x="-1" y="-1" width="102" height="102" rx="51"></rect>
                    </g>
                    <rect stroke="#0078D4" stroke-width="4" x="2" y="2" width="96" height="96" rx="48"></rect>
                </g>
            </g>
        </g>
    </g>
</svg>