<svg xmlns="http://www.w3.org/2000/svg" viewBox="0 0 240 240"><style type="text/css"> .st0{fill:#B2D7F0;} .st1{fill:#A67B53;} .st2{fill:none;} .st3{fill:#8C623D;} .st4{fill:#221E1E;} .st5{fill:#C5A172;} .st6{fill:#EAEAEA;} .st7{fill:#A6A6A6;} .st8{fill:#98774C;}</style><path class="st0" d="M189.4,30.1c-18.2,0-32.9,14.7-32.9,32.9c0,3.2,0.5,6.3,1.3,9.2l-8.1,4.7c-6.7-9.4-17.6-15.5-30-15.5	c-12.4,0-23.4,6.1-30,15.5l-8.1-4.7c0.8-2.9,1.3-5.9,1.3-9.1c0-18.2-14.7-32.9-32.9-32.9S17.1,44.9,17.1,63.1S31.8,96,50,96	c10,0,18.9-4.5,25-11.5l8.9,5.1c-0.6,2.7-1,5.5-1,8.5c0,17.9,12.8,32.9,29.8,36.1v8.6c-14.8,3.2-25.9,16.4-25.9,32.1	c0,18.2,14.7,32.9,32.9,32.9s32.9-14.7,32.9-32.9c0-15.8-11.1-28.9-25.9-32.1v-8.6c17-3.3,29.8-18.2,29.8-36.1c0-2.9-0.3-5.7-1-8.4	l9-5.2c6,7,15,11.4,24.9,11.4c18.2,0,32.9-14.7,32.9-32.9S207.5,30.1,189.4,30.1z"/><path class="st1" d="M128.6,181.3c5.3-10.1,3.9-21.2-3-24.8c-6.9-3.6-16.8,1.5-22.1,11.6c-5.3,10.1-3.9,21.2,3,24.8	c1.4,0.7,3,1.1,4.6,1.1c-0.6,8-3.5,8.1-3.5,8.1l2.1,4.3c3.1,1,6.5,1.5,10,1.5c0.7,0,1.5,0,2.2-0.1l6.2-7c0,0-4.2-0.3-4.4-10.3	c0-0.8-0.2-1.4-0.5-2C125.2,186.6,127.1,184.1,128.6,181.3z"/><circle class="st2" cx="119.7" cy="175" r="32.9"/><path class="st3" d="M110.4,198.3c4.4,0.4,9.3-1.8,13.4-5.9c0-0.6-0.1-1.2-0.1-1.9s-0.2-1.3-0.5-1.9c-3.7,3.6-8.1,5.5-12.1,5.4	C110.9,195.9,110.7,197.3,110.4,198.3z"/><path class="st4" d="M69.2,84.1V54.9c0-6.1-5.5-16.1-18.7-16.1S31,48,31,58.3v25.8H69.2z"/><rect x="41.2" y="72.5" class="st2" width="17.2" height="28.2"/><path class="st1" d="M64.5,63.9c0-11.8-3.9-21.7-15-21.7c-10.2,0-14.2,10-14.2,21.7c0,6.2,2.7,12,5.9,16v14.9C44,95.6,46.9,96,50,96	c2.9,0,5.7-0.4,8.4-1.1V79.6C61.7,75.6,64.5,70,64.5,63.9z"/><path class="st4" d="M64.5,49.5C62.2,42.9,51.8,40,51.8,40l0.2,1.5c-2.3-0.8-5.2-0.7-9.1,1.2C32,48,33.8,68.3,33.8,68.3	s17.3-3.2,23.7-12.4c2.2,2.7,5.1,5.5,8.3,7C65.8,62.9,66.8,56.1,64.5,49.5z"/><circle class="st2" cx="189.4" cy="63" r="32.9"/><path class="st5" d="M204.8,60.7c0-11.9-4.5-21.5-16.3-21.5c-11.9,0-16.3,9.7-16.3,21.5l0,0c0,6.9,3.7,12.9,7.8,16.9v17	c3,0.9,6.1,1.4,9.4,1.4c2.3,0,4.6-0.2,6.8-0.7V78.3C200.6,74.4,204.8,67.9,204.8,60.7z"/><rect x="102.7" y="77.3" class="st6" width="35.3" height="41.8"/><path class="st7" d="M139.6,75.3v45.1h-38.7V114h-3.2v-3.2h3.2v-6.4h-3.2v-3.2h3.2v-6.4h-3.2v-3.2h3.2v-6.4h-3.2v-3.2h3.2v-6.4	L139.6,75.3L139.6,75.3z M136.4,78.6h-32.2v3.2h3.2v3.2h-3.2v6.4h3.2v3.2h-3.2v6.4h3.2v3.2h-3.2v6.4h3.2v3.2h-3.2v3.2h32.2V78.6z M133.1,94.7h-22.6V81.8h22.6V94.7z M129.9,85.1h-16.1v6.4h16.1V85.1z"/><path class="st4" d="M119.7,207.9c7.3,0,14.1-2.4,19.5-6.4c-4.6-1.7-9.9-2.5-14.1-2.5c-0.5,3.5-3.2,6.2-6.7,6.2s-7.6-2.1-8-6	c-1.8,0.2-5.9,0.9-10.1,2.4C105.7,205.5,112.4,207.9,119.7,207.9z"/><path d="M127.3,167c0.4,1.3-3,12-3,12l3.3-2.1c0,0,3.4,0.9,0.3,5.5c-2.1,3.1-5.7,2.8-5.7,2.8l0.1,4.8c0,0,11.8-5.9,14.5-15.1	c3.5-11.9-2.2-12.8-2.2-12.8s0.9-5.3-5-8.6c-5-2.8-12-0.5-15.5,1.3c-2.6,1.3-3.8-0.9-3.8-0.9S110.3,162.7,127.3,167z"/><path class="st3" d="M49.5,85.6c-2.2,0-5.5-2.2-8.3-5.7v4.5c2.8,3.1,6.1,4.9,8.3,4.9c2.3,0,5.8-1.9,8.9-5.1v-4.6 C55.3,83.3,51.7,85.6,49.5,85.6z"/><path class="st4" d="M33.6,91.6C38.4,94.4,44,96,50,96c6,0,11.6-1.6,16.5-4.4c-2.6-0.7-5.3-1.3-7.7-2c-3.4,3.5-5.2,5.2-8.7,5.2	c-2.6,0-4.6-1.7-8.9-5.2C38.9,90.3,36.3,90.9,33.6,91.6z"/><g><path class="st4" d="M211.5,87.3c-5-1.8-10.8-2.9-15.1-4.3l-6.6,12.9C198.2,95.8,205.8,92.6,211.5,87.3z"/><path class="st4" d="M186.2,95.7L179.6,83c-4,1.3-8.8,2.2-13.1,3.7C171.7,91.7,178.6,95,186.2,95.7z"/></g><path class="st8" d="M172.2,60.7c0,0,0.4-1.5,0.5-2.3h-1.3c-0.9,0-1.7,0.8-1.7,1.7v5.7c0,0.9,0.8,1.7,1.7,1.7h2	C172.6,65.4,172.2,63.1,172.2,60.7z"/><path class="st8" d="M205.3,58.4h-0.6c0,0.8,0.1,1.5,0.1,2.3c0,2.4-0.5,4.7-1.2,6.8h1.7c1,0,1.7-0.7,1.7-1.7v-5.7	C207,59.2,206.2,58.4,205.3,58.4z"/><path class="st4" d="M198.5,42.2c0-2.5-2.3-4.8-11.2-4.3c-17.8,1-15.5,17.9-15.5,17.9l0.5,8.2h3.1c0,0,0-2.4,0-3.4 c0-3.9,1.4-7.2,1.4-7.2s11.5-0.9,17-3.9c2.3,4.2,7.8,3.2,7.9,7.6c0.1,4.6,0.3,6.8,0.3,6.8h2.6c0,0,0.1-3,0.5-8.4 C205.4,50.3,203.9,43,198.5,42.2z"/><path class="st8" d="M188.5,82.2c-2.2,0-5.5-1.7-8.5-4.6v2.7c2.9,2.9,6.2,4.6,8.4,4.6c2,0,5-1.4,7.8-4v-2.6 C193.4,80.7,190.5,82.2,188.5,82.2z"/></svg>